<?xml version="1.0" encoding="utf-8"?>
<!-- Generator: Adobe Illustrator 25.2.3, SVG Export Plug-In . SVG Version: 6.00 Build 0)  -->
<svg version="1.1" id="Capa_1" xmlns="http://www.w3.org/2000/svg" xmlns:xlink="http://www.w3.org/1999/xlink" x="0px" y="0px"
	 viewBox="0 0 465 556.5" style="enable-background:new 0 0 465 556.5;" xml:space="preserve">
<style type="text/css">
	.st0{fill:#FFFFFF;}
</style>
<g>
	<path class="st0" d="M463.9,410.9c1.7-13.4,1.1-26.9-2.8-39.2c-7.3-25.8-16.8-48.2-28-68.3c49.8-70-1.7-183.1-33-251.4
		c-5-10.6-9.5-20.7-12.9-29.1c16.8-1.7,34.2,3.4,34.7,3.4L428,4.4c-1.1-0.6-25.2-6.7-48.2-3.4l-2.8,0.6c-2.2,0.6-5,1.1-7.3,1.7h-0.6
		h-0.6c-2.2,0.6-3.9,1.1-6.2,2.2c-46.5,19.6-68.9,81.2-87.4,131.6c-7.3,20.2-19,52.6-26.9,57.1c-5.6,0-10.6-0.6-16.2-0.6
		c-5.6,0-11.2,0-16.8,0.6c-7.3-4.5-19.6-37.5-26.9-57.7c-18.5-50.4-40.9-112-86.2-131c-1.7-1.1-3.9-1.7-6.2-2.2h-0.6h-0.6
		c-2.2-0.6-5-1.1-7.3-1.7L84.8,1c-23-3.4-47,3.4-48.2,3.4l6.2,21.8c0,0,17.9-5,34.7-3.4c-3.4,8.4-7.8,17.9-12.9,29.1
		c-31.4,68.9-83.4,183.1-31.9,253.1c-11.2,19.6-20.7,42-28.6,66.6c-10.1,31.9-1.7,68.3,24.6,107.5l11.8,17.4l6.7-16.2
		c9.5,11.2,24.6,44.8,26.9,53.8l1.7,15.1l14-6.7c5.6-2.2,11.2-5.6,17.4-8.4c16.8-9,35.8-18.5,52.1-19.6c6.2,25.2,35.8,42,76.7,42
		s70.6-16.8,76.7-42c14.6,1.1,29.1,9.5,43.1,17.4c6.7,3.9,13.4,7.8,20.2,10.6l14,6.7l1.7-15.7c2.2-11.2,16.8-48.7,25.8-54.9
		c0,0,0,0.6,0.6,0.6l9.5,13.4l9-13.4c14.6-21.8,23.5-42.6,27.4-62.7h1.1C463.9,414.3,463.9,412.6,463.9,410.9L463.9,410.9z
		 M419.6,282.1c-23.5-33.6-54.3-57.1-91.3-71.7c19-26.3,21.8-68.3,24.1-106.4c1.7-29.7,3.9-60.5,13.4-73.4c3.4,9,8.4,19,13.4,30.2
		C407.3,122,452.7,221.6,419.6,282.1L419.6,282.1z M296.4,144.9c10.1-28,21.8-59.4,37.5-83.4c-1.7,12.9-2.8,27.4-3.4,41.4
		c-2.2,38.1-5,81.2-24.6,100.2c-10.1-2.8-20.2-4.5-30.8-6.2C281.9,183.6,288.6,165.6,296.4,144.9L296.4,144.9z M243.3,216.6
		c1.7,0.6,3.4,0.6,5,0.6c1.1,0,2.8,0,3.9-0.6c69.4,4.5,121.5,34.7,156.2,89c-17.9-11.8-35.3-16.8-47-19c-23-4.5-42-1.1-55.4,8.4
		c-2.2,1.7-4.5,3.4-6.2,5.6c-5.6,5.6-9.5,12.9-12.3,21.8c-8.4,21.8-12.3,48.7-12.9,53.2l-1.1,10.1l9.5,2.2c1.1,0,24.1,6.7,46.5,42.6
		c3.4,8.4,4.5,16.2,4.5,23c0,21.8-20.2,39.8-44.8,39.8c-19.6,0-36.4-11.2-42.6-26.9c18.5-5.6,38.1-21.3,38.1-40.9
		c0-11.2-5-37-51.5-37c-46.5,0-51.5,25.8-51.5,37c0,20.2,20.7,35.8,39.2,41.4c-6.2,15.1-23,26.3-42,26.3
		c-24.6,0-44.8-17.9-44.8-39.8c0-7.3,1.1-15.1,3.9-23.5c22.4-35.8,45.4-42.6,45.4-42.6l10.1-2.2l-1.1-10.1
		c-0.6-3.9-4.5-30.8-12.9-53.2c-2.8-8.4-6.7-15.7-12.3-21.8c-1.7-2.2-3.9-3.9-6.2-5.6c-13.4-9.5-33-12.9-55.4-8.4
		c-11.2,2.2-29.1,7.3-46.5,18.5c35.3-54.9,86.2-84,154.6-88.5c1.1,0,2.8,0.6,3.9,0.6c1.7,0,3.4,0,5-0.6v-0.6h11.8
		C236,216.6,239.3,216.6,243.3,216.6L243.3,216.6z M307.1,335.9c0.6-2.2,0.6-4.5,1.7-6.2c2.2-5,4.5-9.5,6.7-12.3l3.4-3.4
		c5.6-3.9,12.3-5.6,19-6.2c3.4,3.9,5,8.4,5,13.4c0,12.3-10.6,21.8-24.1,21.8c-4.5,0-8.4-1.1-11.8-2.8
		C306.5,338.7,306.5,337,307.1,335.9L307.1,335.9z M232.6,446.8c-10.1,0-29.1-11.2-29.1-20.7c0-3.4,0-14.6,29.1-14.6
		s29.1,11.2,29.1,14.6C261.7,436.1,242.7,446.8,232.6,446.8z M127.3,307.9c6.7,0.6,13.4,2.2,19,6.2c1.1,1.1,2.2,2.2,3.4,3.4
		c2.2,2.8,5,7.3,6.7,12.3c0.6,2.2,1.1,3.9,1.1,6.2v4.5c-3.4,1.7-7.8,2.8-11.8,2.8c-13.4,0-24.1-10.1-24.1-21.8
		C122.3,316.3,124,311.8,127.3,307.9L127.3,307.9z M188.9,197c-10.6,1.7-20.7,3.9-30.2,6.7c-20.2-19-23-62.2-25.2-100.8
		c-1.1-14.6-1.7-28.6-3.4-41.4c15.7,24.1,27.4,56,37.5,83.4C174.9,165.6,181.7,184.1,188.9,197L188.9,197z M84.2,60.9
		c5-11.2,9.5-21.3,13.4-30.2c10.1,12.9,11.8,43.1,13.4,73.4c2.2,38.1,5,80.6,24.6,107c-36.4,15.1-66.6,39.2-90.7,72.8
		C9.7,223.3,56.2,123.1,84.2,60.9L84.2,60.9z M95.4,513.4c-1.7,1.1-3.4,1.7-5.6,2.8c-5.6-15.1-16.2-39.2-28.6-52.1
		c2.8-10.1,11.2-38.1,32.5-61L77.5,388c-22.4,24.1-32.5,52.6-37,67.2c-0.6,0-1.1,0-1.1,0.6c-8.4-14-14-27.4-16.2-39.8
		c5.6-73.9,48.7-97.4,77.8-104.7c-1.1,3.4-1.1,6.7-1.1,10.6c0,24.6,20.7,44.2,46.5,44.2h0.6c-2.2,2.8-3.9,6.2-6.2,9.5
		c-10.1,14-20.7,29.7-24.6,48.2c-3.4,11.2-5,21.3-5,31.4c0,16.8,7.3,32.5,19.6,43.7C118.4,502.2,106.6,507.8,95.4,513.4L95.4,513.4z
		 M234.8,533.6c-21.3,0-42.6-6.2-51.5-17.4c20.7-1.7,38.6-11.8,49.8-26.9c11.8,15.7,30.8,25.8,52.6,26.9
		C277.4,527.4,256.1,533.6,234.8,533.6z M424.7,454c-3.9-14.6-14.6-42.6-36.4-66.1l-16.2,15.1c19.6,20.7,28,45.4,31.4,57.7
		c-14,11.2-24.6,38.1-30.2,54.9c-2.2-1.1-5-2.8-7.3-3.9c-9-5-18.5-10.6-29.1-14.6c11.8-11.2,19-26.3,19-43.1c0-11.2-2.8-23.5-8.4-37
		c-4.5-16.2-14.6-29.7-23-42c-2.2-3.4-4.5-6.2-6.2-9.5h0.6c25.8,0,46.5-20.2,46.5-44.2c0-3.4-0.6-7.3-1.1-10.6
		c29.1,7.3,70.6,29.7,77.8,99.7C439.2,423.8,433.6,438.4,424.7,454L424.7,454z"/>
	<path class="st0" d="M220.8,258.6h22.4v52.6h-22.4V258.6z"/>
</g>
</svg>
